<svg id="finished" viewBox="0,0,1600,900" xmlns="http://www.w3.org/2000/svg"><polyline points="173.59475708007812,63.14161682128906,173.59475708007812,146.80174255371094,250.98037719726562,148.89324951171875,290.71893310546875,142.61874389648438,336.73199462890625,142.61874389648438,340.9150085449219,228.370361328125,345.0980224609375,255.55990600585938,345.0980224609375,309.9389953613281,347.18951416015625,307.8475036621094,478.9542236328125,307.8475036621094,612.8104248046875,324.5794982910156,650.45751953125,263.9259338378906,694.3790893554688,211.63833618164062,734.1176147460938,178.17428588867188,742.483642578125,167.71676635742188,821.9607543945312,169.80828857421875,847.0587768554688,182.3572998046875,884.7058715820312,205.36383056640625,916.0784301757812,236.73638916015625,930.7189331054688,263.9259338378906,939.0849609375,314.12200927734375,941.1764526367188,349.67755126953125,941.1764526367188,456.3442077636719,926.5359497070312,508.6318054199219,899.3463745117188,550.4617919921875,888.8888549804688,563.0108642578125,874.2483520507812,573.4683837890625,824.05224609375,596.4749755859375,782.2222290039062,604.8409423828125,734.1176147460938,613.2069091796875,658.8235473632812,619.4814453125,612.8104248046875,619.4814453125,558.4313354492188,613.2069091796875,512.4182739257812,592.2918701171875,424.57513427734375,542.0958251953125,391.111083984375,533.7298583984375,363.9215393066406,533.7298583984375,343.0065002441406,560.9193115234375,322.09149169921875,611.115478515625,317.9084777832031,648.762451171875,317.9084777832031,692.68408203125,332.5489807128906,721.965087890625,355.5555419921875,740.7886962890625,389.01959228515625,759.6121826171875,424.57513427734375,767.9781494140625,527.058837890625,770.0697021484375,568.8888549804688,763.795166015625,773.856201171875,698.9586181640625,830.3267822265625,673.860595703125,865.88232421875,650.85400390625,893.0718383789062,623.6644287109375,934.9019165039062,558.827880859375,976.7319946289062,441.7037048339844,1001.8300170898438,389.4161071777344,1031.1109619140625,353.8605651855469,1047.843017578125,339.22003173828125,1072.9410400390625,324.5794982910156,1102.22216796875,316.2135009765625,1154.5096435546875,309.9389953613281,1225.620849609375,309.9389953613281,1242.352783203125,314.12200927734375,1273.725341796875,330.8540344238281,1296.73193359375,355.9520568847656,1303.0064697265625,368.5010681152344,1311.3724365234375,401.9651184082031,1311.3724365234375,462.6187438964844,1307.189453125,479.3507385253906,1279.9998779296875,489.8082580566406,1215.163330078125,489.8082580566406,1187.9737548828125,479.3507385253906,1154.5096435546875,447.9781799316406,1116.8626708984375,397.7821350097656,1095.9476318359375,360.13507080078125,1085.4901123046875,312.0304870605469,1081.30712890625,184.44879150390625" fill="none" stroke="black" stroke-linejoin="arcs"/><polyline points="713.2025756835938,98.69717407226562,1210.9803466796875,98.69717407226562,1284.182861328125,104.9716796875,1397.1240234375,104.9716796875,1380.39208984375,182.3572998046875,1374.1175537109375,178.17428588867188,1288.3658447265625,155.16775512695312,1200.5228271484375,140.52723693847656,1116.8626708984375,136.34423828125,1024.8365478515625,136.34423828125,899.3463745117188,125.88671875,840.7843017578125,125.88671875,861.6993408203125,155.16775512695312,878.4313354492188,150.98475646972656,1064.5750732421875,150.98475646972656,1250.7188720703125,167.71676635742188,1292.5489501953125,182.3572998046875,1296.73193359375,186.54031372070312,1294.640380859375,199.08932495117188,1175.4246826171875,196.99783325195312,1158.6927490234375,192.8148193359375,1112.6796875,171.8997802734375,1087.58154296875,167.71676635742188,1014.3790893554688,167.71676635742188,1008.1045532226562,169.80828857421875,1008.1045532226562,176.08279418945312,1014.3790893554688,209.54684448242188,1026.927978515625,203.2723388671875,1060.39208984375,194.90631103515625,1075.0325927734375,184.44879150390625,1095.9476318359375,184.44879150390625,1112.6796875,203.2723388671875,1123.13720703125,205.36383056640625,1144.0521240234375,217.912841796875,1183.790771484375,230.46188354492188,1292.5489501953125,243.01089477539062,1338.56201171875,245.10238647460938,1361.5684814453125,261.83441162109375,1382.4835205078125,272.29193115234375,1436.8626708984375,318.30499267578125,1468.2352294921875,358.0435485839844,1493.333251953125,399.8736267089844,1493.333251953125,481.4422302246094,1489.150146484375,504.4487609863281,1466.1436767578125,560.9193115234375,1445.2286376953125,581.8343505859375,1420.130615234375,592.2918701171875,1353.2025146484375,590.200439453125,1315.555419921875,592.2918701171875,1265.359375,632.030517578125,1244.4443359375,655.0369873046875,1233.98681640625,671.76904296875,1225.620849609375,711.507568359375,1225.620849609375,719.8736572265625,1261.1763916015625,730.3311767578125,1342.7449951171875,747.0631103515625,1403.3985595703125,749.1546630859375,1415.9476318359375,740.7886962890625,1424.3135986328125,740.7886962890625,1432.6795654296875,749.1546630859375,1430.588134765625,786.8017578125,1401.30712890625,807.716796875,1363.6600341796875,820.2657470703125,1303.0064697265625,830.7232666015625,1261.1763916015625,830.7232666015625,1244.4443359375,820.2657470703125,1221.437744140625,797.25927734375,1164.9671630859375,711.507568359375,1141.960693359375,707.3245849609375,1083.3985595703125,707.3245849609375,1058.300537109375,719.8736572265625,1018.5620727539062,751.24609375,1003.9215698242188,751.24609375,987.1895141601562,736.6055908203125,957.908447265625,673.860595703125,955.8169555664062,617.389892578125,974.6405029296875,609.02392578125,1006.0130004882812,602.7493896484375,1066.6666259765625,594.3834228515625,1110.588134765625,592.2918701171875,1135.6861572265625,581.8343505859375,1158.6927490234375,558.827880859375,1158.6927490234375,552.5533447265625,1154.5096435546875,548.370361328125,1123.13720703125,535.8212890625,1091.7646484375,535.8212890625,1072.9410400390625,548.370361328125,1058.300537109375,506.5403137207031,1054.1175537109375,466.8017272949219,1062.4835205078125,447.9781799316406,1102.22216796875,447.9781799316406,1110.588134765625,456.3442077636719,1110.588134765625,401.9651184082031,1070.849609375,399.8736267089844,1060.39208984375,408.2396545410156,1058.300537109375,414.5141296386719" fill="none" stroke="black" stroke-linejoin="arcs"/><polyline points="468.4967041015625,339.22003173828125,466.4051818847656,339.22003173828125,478.9542236328125,339.22003173828125,504.0522766113281,345.4945373535156,550.0653686523438,364.3180847167969,602.3529052734375,364.3180847167969,621.1764526367188,351.76904296875,667.1895141601562,301.5729675292969,709.0195922851562,276.4749450683594,746.6666259765625,270.200439453125,773.856201171875,270.200439453125,803.13720703125,286.9324645996094,813.5947265625,305.7559814453125,819.8692626953125,326.6710205078125,819.8692626953125,370.59259033203125,807.3202514648438,389.4161071777344,786.4052124023438,408.2396545410156,721.568603515625,412.4226379394531,711.111083984375,401.9651184082031,709.0195922851562,378.9585876464844,719.4771118164062,362.2265625,729.9346313476562,355.9520568847656,746.6666259765625,351.76904296875,775.9476928710938,351.76904296875,784.313720703125,368.5010681152344,784.313720703125,393.59912109375,748.7581787109375,393.59912109375,746.6666259765625,378.9585876464844,759.2156372070312,376.8670959472656" fill="none" stroke="black" stroke-linejoin="arcs"/><polyline points="575.1633911132812,107.06318664550781,575.1633911132812,102.88018798828125,558.4313354492188,92.42266845703125,550.0653686523438,92.42266845703125,541.6993408203125,88.23965454101562,493.5947570800781,88.23965454101562,478.9542236328125,92.42266845703125,468.4967041015625,98.69717407226562,451.7646789550781,119.61221313476562,445.49017333984375,144.71023559570312,445.49017333984375,184.44879150390625,453.8561706542969,196.99783325195312,462.2221984863281,201.18081665039062,481.04571533203125,201.18081665039062,527.058837890625,184.44879150390625,564.7058715820312,182.3572998046875,573.0718994140625,186.54031372070312,581.4379272460938,199.08932495117188,583.5294189453125,232.55337524414062,560.5228881835938,240.91940307617188,514.5098266601562,249.285400390625,445.49017333984375,249.285400390625,418.3006286621094,234.64486694335938,403.66009521484375,215.82135009765625,397.3855895996094,201.18081665039062,395.2940979003906,186.54031372070312,395.2940979003906,109.15469360351562,401.568603515625,94.51416015625,451.7646789550781,65.23312377929688,460.13067626953125,65.23312377929688,466.4051818847656,61.05010986328125,508.2352600097656,50.59260559082031,514.5098266601562,44.318084716796875,552.1568603515625,46.40959167480469,612.8104248046875,67.32463073730469,619.0849609375,73.59913635253906,629.54248046875,94.51416015625,629.54248046875,123.79521179199219,612.8104248046875,140.52723693847656,583.5294189453125,140.52723693847656,537.516357421875,121.70370483398438,514.5098266601562,117.52070617675781,493.5947570800781,127.97821044921875,478.9542236328125,140.52723693847656,476.8627014160156,159.35076904296875,516.601318359375,165.62527465820312,566.79736328125,165.62527465820312,593.9869384765625,180.26580810546875,612.8104248046875,186.54031372070312,625.3594360351562,186.54031372070312,627.4509887695312,178.17428588867188,637.9085083007812,167.71676635742188,654.6405029296875,140.52723693847656,660.9150390625,92.42266845703125,669.281005859375,71.50762939453125,813.5947265625,77.78213500976562,813.5947265625,79.87364196777344" fill="none" stroke="black" stroke-linejoin="arcs"/><polyline points="267.71240234375,335.0370178222656,250.98037719726562,326.6710205078125,209.1503143310547,326.6710205078125,200.7843017578125,332.9455261230469,200.7843017578125,349.67755126953125,190.3267822265625,372.68408203125,190.3267822265625,381.05010986328125,194.50979614257812,381.05010986328125,209.1503143310547,393.59912109375,209.1503143310547,422.8801574707031,204.96730041503906,422.8801574707031,188.2352752685547,443.7951965332031,175.68626403808594,475.1677551269531,192.4182891845703,481.4422302246094,202.87579345703125,489.8082580566406,207.05880737304688,489.8082580566406,209.1503143310547,493.9912414550781,209.1503143310547,516.997802734375,200.7843017578125,552.5533447265625,200.7843017578125,569.285400390625,209.1503143310547,581.8343505859375,209.1503143310547,588.10888671875,217.51632690429688,588.10888671875,227.97384643554688,594.3834228515625,225.88233947753906,623.6644287109375,246.79736328125,636.2135009765625,261.4378967285156,640.396484375,271.8954162597656,638.304931640625" fill="none" stroke="black" stroke-linejoin="arcs"/><polyline points="248.88888549804688,408.2396545410156,244.70587158203125,408.2396545410156,240.52285766601562,422.8801574707031,215.42481994628906,468.8932189941406,215.42481994628906,477.2592468261719,265.6208801269531,487.7167663574219,290.71893310546875,489.8082580566406,294.9019470214844,485.6252746582031,294.9019470214844,450.0697326660156,292.8104248046875,435.4291687011719,286.5359191894531,420.7886657714844,257.2548828125,418.6971740722656,250.98037719726562,414.5141296386719" fill="none" stroke="black" stroke-linejoin="arcs"/><polyline points="257.2548828125,454.2527160644531,257.2548828125,452.1612243652344,257.2548828125,468.8932189941406,261.4378967285156,462.6187438964844,271.8954162597656,456.3442077636719,265.6208801269531,456.3442077636719,263.5293884277344,460.5271911621094,261.4378967285156,458.4356994628906,267.71240234375,458.4356994628906,267.71240234375,464.7102355957031,265.6208801269531,466.8017272949219,265.6208801269531,456.3442077636719,271.8954162597656,452.1612243652344,269.80389404296875,458.4356994628906" fill="none" stroke="black" stroke-linejoin="arcs"/><polyline points="485.2287292480469,372.68408203125,468.4967041015625,372.68408203125,462.2221984863281,381.05010986328125,460.13067626953125,399.8736267089844,464.3136901855469,399.8736267089844,468.4967041015625,408.2396545410156,468.4967041015625,427.0631408691406,460.13067626953125,433.3376770019531,451.7646789550781,445.8866882324219,462.2221984863281,445.8866882324219,470.58819580078125,454.2527160644531,470.58819580078125,464.7102355957031,466.4051818847656,466.8017272949219,472.6797180175781,473.0762634277344,470.58819580078125,477.2592468261719,466.4051818847656,477.2592468261719,468.4967041015625,487.7167663574219,491.5032043457031,489.8082580566406,506.1437683105469,500.2657775878906,520.7843017578125,500.2657775878906" fill="none" stroke="black" stroke-linejoin="arcs"/><polyline points="489.4117126464844,418.6971740722656,485.2287292480469,420.7886657714844,489.4117126464844,418.6971740722656,489.4117126464844,429.1546936035156,489.4117126464844,418.6971740722656,489.4117126464844,424.9716491699219" fill="none" stroke="black" stroke-linejoin="arcs"/><polyline points="640,424.9716491699219,640,422.8801574707031,640,429.1546936035156,635.8169555664062,431.2461853027344,606.5359497070312,493.9912414550781,589.8038940429688,550.4617919921875,619.0849609375,548.370361328125,660.9150390625,560.9193115234375,681.830078125,508.6318054199219,696.4705810546875,485.6252746582031,709.0195922851562,456.3442077636719,713.2025756835938,454.2527160644531,702.7450561523438,445.8866882324219,660.9150390625,424.9716491699219,644.1829833984375,422.8801574707031,646.2744750976562,427.0631408691406" fill="none" stroke="black" stroke-linejoin="arcs"/><polyline points="665.0980224609375,560.9193115234375,755.0326538085938,560.9193115234375,759.2156372070312,537.912841796875,790.5881958007812,462.6187438964844,767.5816650390625,462.6187438964844,746.6666259765625,456.3442077636719,711.111083984375,454.2527160644531" fill="none" stroke="black" stroke-linejoin="arcs"/><polyline points="794.771240234375,468.8932189941406,794.771240234375,462.6187438964844,803.13720703125,450.0697326660156,828.2352905273438,420.7886657714844,884.7058715820312,435.4291687011719,867.9738159179688,468.8932189941406,847.0587768554688,527.455322265625,801.0457153320312,540.00439453125,750.8496704101562,565.1024169921875" fill="none" stroke="black" stroke-linejoin="arcs"/><polyline points="830.3267822265625,422.8801574707031,830.3267822265625,376.8670959472656,880.5228271484375,376.8670959472656,882.6143798828125,378.9585876464844,880.5228271484375,404.056640625,882.6143798828125,431.2461853027344" fill="none" stroke="black" stroke-linejoin="arcs"/><polyline points="832.4182739257812,374.7756042480469,832.4182739257812,314.12200927734375,836.6012573242188,295.2984619140625,836.6012573242188,276.4749450683594,838.6928100585938,276.4749450683594,849.1503295898438,282.74945068359375,880.5228271484375,286.9324645996094,882.6143798828125,376.8670959472656" fill="none" stroke="black" stroke-linejoin="arcs"/><polyline points="41.83006286621094,236.73638916015625,41.83006286621094,291.1154479980469" fill="none" stroke="black" stroke-linejoin="arcs"/><polyline points="41.83006286621094,305.7559814453125,41.83006286621094,368.5010681152344" fill="none" stroke="black" stroke-linejoin="arcs"/><polyline points="41.83006286621094,395.69061279296875,41.83006286621094,460.5271911621094" fill="none" stroke="black" stroke-linejoin="arcs"/><polyline points="41.83006286621094,504.4487609863281,41.83006286621094,581.8343505859375" fill="none" stroke="black" stroke-linejoin="arcs"/><polyline points="60.653587341308594,588.10888671875,125.49018859863281,588.10888671875" fill="none" stroke="black" stroke-linejoin="arcs"/><polyline points="163.13723754882812,594.3834228515625,230.06533813476562,594.3834228515625" fill="none" stroke="black" stroke-linejoin="arcs"/><polyline points="271.8954162597656,594.3834228515625,317.9084777832031,594.3834228515625" fill="none" stroke="black" stroke-linejoin="arcs"/><polyline points="376.4705505371094,598.56640625,435.03265380859375,598.56640625" fill="none" stroke="black" stroke-linejoin="arcs"/><polyline points="441.3071594238281,575.5599365234375,441.3071594238281,506.5403137207031" fill="none" stroke="black" stroke-linejoin="arcs"/><polyline points="441.3071594238281,464.7102355957031,441.3071594238281,404.056640625" fill="none" stroke="black" stroke-linejoin="arcs"/><polyline points="445.49017333984375,355.9520568847656,445.49017333984375,274.3834533691406" fill="none" stroke="black" stroke-linejoin="arcs"/><polyline points="445.49017333984375,228.370361328125,445.49017333984375,186.54031372070312" fill="none" stroke="black" stroke-linejoin="arcs"/><polyline points="443.3986511230469,173.99130249023438,368.10455322265625,171.8997802734375" fill="none" stroke="black" stroke-linejoin="arcs"/><polyline points="338.8235168457031,171.8997802734375,232.15682983398438,171.8997802734375,232.15682983398438,173.99130249023438" fill="none" stroke="black" stroke-linejoin="arcs"/><polyline points="192.4182891845703,171.8997802734375,100.39215087890625,171.8997802734375" fill="none" stroke="black" stroke-linejoin="arcs"/><polyline points="94.11763763427734,188.63180541992188,94.11763763427734,236.73638916015625,96.20913696289062,266.0174255371094,98.30064392089844,266.0174255371094" fill="none" stroke="black" stroke-linejoin="arcs"/><polyline points="98.30064392089844,301.5729675292969,96.20913696289062,387.3246154785156" fill="none" stroke="black" stroke-linejoin="arcs"/><polyline points="98.30064392089844,437.5206604003906,98.30064392089844,527.455322265625" fill="none" stroke="black" stroke-linejoin="arcs"/><polyline points="135.94769287109375,531.6383056640625,227.97384643554688,531.6383056640625,227.97384643554688,533.7298583984375" fill="none" stroke="black" stroke-linejoin="arcs"/><polyline points="250.98037719726562,535.8212890625,311.63397216796875,535.8212890625" fill="none" stroke="black" stroke-linejoin="arcs"/><polyline points="343.0065002441406,537.912841796875,399.4770812988281,537.912841796875" fill="none" stroke="black" stroke-linejoin="arcs"/><polyline points="399.4770812988281,512.8148193359375,399.4770812988281,441.7037048339844" fill="none" stroke="black" stroke-linejoin="arcs"/><polyline points="399.4770812988281,391.5075988769531,399.4770812988281,318.30499267578125" fill="none" stroke="black" stroke-linejoin="arcs"/><polyline points="399.4770812988281,270.200439453125,399.4770812988281,222.09585571289062,399.4770812988281,224.18734741210938" fill="none" stroke="black" stroke-linejoin="arcs"/><polyline points="384.8365783691406,220.00436401367188,301.17645263671875,220.00436401367188,301.17645263671875,222.09585571289062" fill="none" stroke="black" stroke-linejoin="arcs"/><polyline points="255.16339111328125,217.912841796875,146.40521240234375,220.00436401367188,150.58822631835938,222.09585571289062" fill="none" stroke="black" stroke-linejoin="arcs"/><polyline points="146.40521240234375,253.46841430664062,146.40521240234375,330.8540344238281" fill="none" stroke="black" stroke-linejoin="arcs"/><polyline points="142.2222137451172,399.8736267089844,142.2222137451172,470.9847106933594" fill="none" stroke="black" stroke-linejoin="arcs"/><polyline points="192.4182891845703,489.8082580566406,307.4509582519531,487.7167663574219" fill="none" stroke="black" stroke-linejoin="arcs"/><polyline points="334.6405029296875,487.7167663574219,368.10455322265625,487.7167663574219" fill="none" stroke="black" stroke-linejoin="arcs"/><polyline points="368.10455322265625,464.7102355957031,368.10455322265625,389.4161071777344" fill="none" stroke="black" stroke-linejoin="arcs"/><polyline points="363.9215393066406,351.76904296875,363.9215393066406,266.0174255371094,363.9215393066406,274.3834533691406" fill="none" stroke="black" stroke-linejoin="arcs"/><polyline points="347.18951416015625,270.200439453125,217.51632690429688,270.200439453125,207.05880737304688,274.3834533691406" fill="none" stroke="black" stroke-linejoin="arcs"/><polyline points="204.96730041503906,286.9324645996094,204.96730041503906,427.0631408691406" fill="none" stroke="black" stroke-linejoin="arcs"/><polyline points="244.70587158203125,427.0631408691406,345.0980224609375,427.0631408691406" fill="none" stroke="black" stroke-linejoin="arcs"/></svg>